<?xml version="1.0" encoding="UTF-8" standalone="no"?>
<svg
   width="160mm"
   height="30mm"
   viewBox="0 0 160.00001 30"
   version="1.1"
   id="svg8"
   inkscape:version="1.3.2 (091e20e, 2023-11-25)"
   sodipodi:docname="riotx.svg"
   xmlns:inkscape="http://www.inkscape.org/namespaces/inkscape"
   xmlns:sodipodi="http://sodipodi.sourceforge.net/DTD/sodipodi-0.dtd"
   xmlns="http://www.w3.org/2000/svg"
   xmlns:svg="http://www.w3.org/2000/svg"
   xmlns:rdf="http://www.w3.org/1999/02/22-rdf-syntax-ns#"
   xmlns:cc="http://creativecommons.org/ns#"
   xmlns:dc="http://purl.org/dc/elements/1.1/">
  <defs
     id="defs2">
    <rect
       x="-173.74624"
       y="-201.02036"
       width="476.792"
       height="146.47212"
       id="rect1" />
  </defs>
  <sodipodi:namedview
     id="base"
     pagecolor="#ffffff"
     bordercolor="#666666"
     borderopacity="1.0"
     inkscape:pageopacity="0.0"
     inkscape:pageshadow="2"
     inkscape:zoom="0.98994949"
     inkscape:cx="346.9874"
     inkscape:cy="77.781746"
     inkscape:document-units="mm"
     inkscape:current-layer="layer1"
     inkscape:document-rotation="0"
     showgrid="false"
     inkscape:window-width="1920"
     inkscape:window-height="1027"
     inkscape:window-x="0"
     inkscape:window-y="62"
     inkscape:window-maximized="0"
     fit-margin-top="0"
     fit-margin-left="0"
     fit-margin-right="0"
     fit-margin-bottom="0"
     inkscape:showpageshadow="2"
     inkscape:pagecheckerboard="0"
     inkscape:deskcolor="#d1d1d1" />
  <metadata
     id="metadata5">
    <rdf:RDF>
      <cc:Work
         rdf:about="">
        <dc:format>image/svg+xml</dc:format>
        <dc:type
           rdf:resource="http://purl.org/dc/dcmitype/StillImage" />
      </cc:Work>
    </rdf:RDF>
  </metadata>
  <g
     inkscape:label="Layer 1"
     inkscape:groupmode="layer"
     id="layer1"
     transform="translate(-16.906092,-13.0618)">
    <rect
       style="fill:#5d594f;fill-opacity:1;stroke-width:0.236309"
       id="rect855"
       width="159.13409"
       height="28.726189"
       x="17.339045"
       y="13.698706"
       ry="14.363094"
       rx="10.856715" />
    <g
       id="g3"
       style="fill:#ffffff;fill-opacity:1">
      <rect
         style="fill:#ffffff;fill-opacity:1;stroke-width:0.175693"
         id="rect857"
         width="42.794144"
         height="3"
         x="94.92836"
         y="17.295719" />
      <rect
         style="fill:#ffffff;fill-opacity:1;stroke-width:0.175693"
         id="rect857-5"
         width="42.794151"
         height="3"
         x="94.92836"
         y="21.928761" />
      <rect
         style="fill:#ffffff;fill-opacity:1;stroke-width:0.175693"
         id="rect857-5-1"
         width="42.794155"
         height="3"
         x="94.92836"
         y="26.5618" />
      <rect
         style="fill:#ffffff;fill-opacity:1;stroke-width:0.175693"
         id="rect857-5-1-1"
         width="42.794159"
         height="3"
         x="94.92836"
         y="31.194839" />
      <rect
         style="fill:#ffffff;fill-opacity:1;stroke-width:0.175693"
         id="rect857-5-1-1-8"
         width="42.794159"
         height="3"
         x="94.92836"
         y="35.827881" />
    </g>
    <g
       id="g1081"
       transform="matrix(1.2717148,0,0,1.2717148,121.15457,-9.9505253)"
       style="stroke-width:0.786341">
      <g
         id="g1052"
         transform="matrix(0.03809932,0,0,0.03809932,18.021018,20.969704)"
         style="fill:#ffffff;stroke-width:5.4608">
        <path
           class="st0"
           d="m 228.4,50.4 c 0,0.2 2.4,4.7 5.4,10.3 3,5.5 5.1,10.2 4.8,10.5 -0.3,0.2 -8.7,3.4 -18.6,6.9 -10,3.6 -17.9,6.6 -17.8,6.7 0.1,0.1 11.4,1.3 25,2.6 16.4,1.5 25,2.6 25.6,3.3 0.5,0.5 4.3,6.6 8.4,13.4 l 7.4,12.4 1.3,-3.1 c 0.7,-1.6 3,-7.1 5,-12 l 3.7,-8.9 19.7,-2.1 c 10.8,-1.2 20.4,-2.1 21.4,-2.1 l 1.7,-0.7 c 0,-0.3 -7.3,-3.3 -16.3,-6.7 -8.9,-3.3 -16.3,-6.2 -16.3,-6.3 0,-0.1 1.9,-4.8 4.3,-10.5 2.3,-5.7 4.1,-10.5 4,-10.6 -0.2,-0.2 -7.8,2.1 -16.8,5 L 264,63.9 246.5,57 C 229.3,50.2 228.4,49.9 228.4,50.4 Z M 337,109.5 c -20.9,8.3 -38.1,15.2 -38.2,15.4 -0.2,0.2 15.4,6.5 34.6,14.1 l 34.8,13.7 3.7,-1.5 c 38.8,-15.1 74,-29.1 73.9,-29.3 L 375.9,94.4 c -0.7,0.1 -18.1,6.8 -38.9,15.1 z m -200.6,-8.1 c -20.1,2.1 -36.9,7.9 -44,15.3 -4.9,5 -5.7,9.3 -2.6,14.5 4.5,7.8 19.3,14.3 39.7,17.6 9.2,1.6 36.1,1.3 45.4,-0.3 21.8,-3.8 36,-10.8 39.3,-19.6 1.2,-3.3 1.2,-3.7 0,-6.9 -3.3,-8.5 -17.2,-15.6 -37.8,-19.2 -10.4,-1.7 -29.8,-2.4 -40,-1.4 z m 373.3,24.2 c -1,1.3 -4.7,4.3 -8.3,6.7 -10.6,6.8 -24.2,13 -109.1,49.6 -59.7,25.6 -74.9,32.4 -95.5,42.3 -22.9,10.9 -32.4,14 -43.9,14 -10.3,0 -16.5,-1.8 -35.7,-10.3 C 209.5,224.5 178,211.3 147.3,198.5 12.8,142.6 10.3,141.4 3.1,133.6 l -3,-3.3 V 183 l 3.4,3.3 c 3.3,3.2 14.4,9.9 18.3,11 1.1,0.3 8.4,3.3 16.3,6.7 7.9,3.4 46.5,19.6 85.8,36 65,27.1 79.8,33.3 102,43 11.7,5.2 18.2,6.5 29.3,6.1 8.1,-0.3 10.5,-0.8 17.6,-3.2 4.6,-1.5 12.5,-4.9 17.6,-7.5 16.9,-8.5 37.3,-17.5 118.6,-52.5 76.5,-33 86.5,-37.6 94.8,-43.3 8.5,-6.1 8.2,-4.6 8.2,-34 0,-14.1 -0.1,-25.6 -0.2,-25.6 z M 241.9,160 c -31.3,4.8 -57.2,8.9 -57.7,9.1 -0.7,0.2 78,33.3 81.3,34.2 l 36,-51.7 c -0.1,-0.7 0,-0.8 -59.6,8.4 z m 268.3,52.4 c -0.7,1.2 -4,4 -7.1,6.3 -10.2,7 -25.5,14 -118.5,54 -53.5,23.1 -70.3,30.5 -86.2,38.2 -25.8,12.5 -32,14.5 -45.8,14.5 -10.7,-0.1 -17.3,-1.8 -31.5,-8.2 -13.7,-6.3 -29,-12.7 -90.4,-38.2 C 23.6,234.6 11.3,229 3.7,221.7 L 0,218.2 v 52 l 4.2,4 c 6.8,6.4 6.1,6 120.9,53.8 42.1,17.5 81.8,34.2 88.2,37.1 16.9,7.6 21.8,9.4 28.5,10.8 15.6,3.2 27.2,0.6 52.5,-11.7 16.5,-8 36.6,-16.9 85.3,-37.9 92.6,-39.9 115.4,-50.2 122.2,-54.7 2.4,-1.7 5.7,-4.4 7.3,-6.2 l 2.9,-3.2 v -26 c 0,-14.3 -0.1,-26 -0.2,-26 z m -0.9,85.2 c -6.1,7.7 -18.4,13.6 -113.9,54.7 -62.3,26.9 -81.3,35.3 -101.8,45 -21.5,10.2 -28.6,12.4 -41,12.4 -8.5,0 -17.1,-2 -26.6,-6.2 -22.3,-9.8 -37,-16 -102.1,-43.1 C 49.9,329.6 26.2,319.5 18.3,315.6 10.9,311.9 3.4,306.6 1.7,303.9 L 0,301.4 v 26.5 c 0,30.4 -0.5,28.1 7.6,33.6 9,6 22.4,12 111.3,48.9 62.1,25.8 84.5,35.2 95.5,40.2 22.5,10.1 28.5,11.7 41.1,11 11.5,-0.5 19,-3 38.9,-12.5 20.7,-9.9 36,-16.8 103.7,-45.9 94,-40.5 104.2,-45.4 111.3,-53.6 l 2.5,-2.8 v -25.9 c 0,-14.3 -0.1,-26 -0.2,-26 z"
           id="path1050"
           style="fill:#ffffff;stroke-width:5.4608" />
      </g>
    </g>
    <text
       xml:space="preserve"
       transform="matrix(0.26458333,0,0,0.26458333,16.906092,13.0618)"
       id="text1"
       style="fill:#000000;white-space:pre;shape-inside:url(#rect1);-inkscape-font-specification:'Microgramma D Extended';font-family:'Microgramma D Extended';font-weight:normal;font-style:normal;font-stretch:normal;font-variant:normal" />
    <text
       xml:space="preserve"
       style="font-style:normal;font-variant:normal;font-weight:normal;font-stretch:normal;font-size:22.5778px;font-family:'Microgramma D Extended';-inkscape-font-specification:'Microgramma D Extended';fill:#000000;stroke-width:0.264583"
       x="25.191448"
       y="34.170723"
       id="text2"><tspan
         sodipodi:role="line"
         id="tspan2"
         style="font-size:22.5778px;fill:#ffffff;stroke-width:0.264583"
         x="25.191448"
         y="34.170723">riotx</tspan></text>
  </g>
</svg>
