<?xml version="1.0" encoding="UTF-8" standalone="no"?>
<svg
   width="160mm"
   height="30mm"
   viewBox="0 0 160.00001 30"
   version="1.1"
   id="svg8"
   inkscape:version="1.3.2 (091e20e, 2023-11-25)"
   sodipodi:docname="riotx.svg"
   xml:space="preserve"
   xmlns:inkscape="http://www.inkscape.org/namespaces/inkscape"
   xmlns:sodipodi="http://sodipodi.sourceforge.net/DTD/sodipodi-0.dtd"
   xmlns="http://www.w3.org/2000/svg"
   xmlns:svg="http://www.w3.org/2000/svg"
   xmlns:rdf="http://www.w3.org/1999/02/22-rdf-syntax-ns#"
   xmlns:cc="http://creativecommons.org/ns#"
   xmlns:dc="http://purl.org/dc/elements/1.1/"><defs
     id="defs2"><rect
       x="-173.74624"
       y="-201.02036"
       width="476.792"
       height="146.47212"
       id="rect1" /><clipPath
       id="clip0_1878_297"><rect
         width="85"
         height="26.5991"
         fill="white"
         id="rect1-5" /></clipPath></defs><sodipodi:namedview
     id="base"
     pagecolor="#ffffff"
     bordercolor="#666666"
     borderopacity="1.0"
     inkscape:pageopacity="0.0"
     inkscape:pageshadow="2"
     inkscape:zoom="0.98994949"
     inkscape:cx="345.97725"
     inkscape:cy="77.781746"
     inkscape:document-units="mm"
     inkscape:current-layer="layer1"
     inkscape:document-rotation="0"
     showgrid="false"
     inkscape:window-width="1728"
     inkscape:window-height="1027"
     inkscape:window-x="215"
     inkscape:window-y="99"
     inkscape:window-maximized="0"
     fit-margin-top="0"
     fit-margin-left="0"
     fit-margin-right="0"
     fit-margin-bottom="0"
     inkscape:showpageshadow="2"
     inkscape:pagecheckerboard="0"
     inkscape:deskcolor="#d1d1d1" /><metadata
     id="metadata5"><rdf:RDF><cc:Work
         rdf:about=""><dc:format>image/svg+xml</dc:format><dc:type
           rdf:resource="http://purl.org/dc/dcmitype/StillImage" /></cc:Work></rdf:RDF></metadata><g
     inkscape:label="Layer 1"
     inkscape:groupmode="layer"
     id="layer1"
     transform="translate(-16.906092,-13.0618)"><rect
       style="fill:#cccccc;fill-opacity:1;stroke-width:0.215553"
       id="rect855"
       width="132.40714"
       height="28.726189"
       x="17.339045"
       y="13.698706"
       ry="14.363094"
       rx="9.0333042" /><g
       id="g3"
       style="fill:#ff4438;fill-opacity:1"><rect
         style="fill:#ff4438;fill-opacity:1;stroke-width:0.175693"
         id="rect857"
         width="42.794144"
         height="3"
         x="94.92836"
         y="17.295719" /><rect
         style="fill:#ff4438;fill-opacity:1;stroke-width:0.175693"
         id="rect857-5"
         width="42.794151"
         height="3"
         x="94.92836"
         y="21.928761" /><rect
         style="fill:#ff4438;fill-opacity:1;stroke-width:0.175693"
         id="rect857-5-1"
         width="42.794155"
         height="3"
         x="94.92836"
         y="26.5618" /><rect
         style="fill:#ff4438;fill-opacity:1;stroke-width:0.175693"
         id="rect857-5-1-1"
         width="42.794159"
         height="3"
         x="94.92836"
         y="31.194839" /><rect
         style="fill:#ff4438;fill-opacity:1;stroke-width:0.175693"
         id="rect857-5-1-1-8"
         width="42.794159"
         height="3"
         x="94.92836"
         y="35.827881" /></g><text
       xml:space="preserve"
       transform="matrix(0.26458333,0,0,0.26458333,16.906092,13.0618)"
       id="text1"
       style="fill:#000000;white-space:pre;shape-inside:url(#rect1);-inkscape-font-specification:'Microgramma D Extended';font-family:'Microgramma D Extended';font-weight:normal;font-style:normal;font-stretch:normal;font-variant:normal" /><path
       style="font-size:22.5778px;font-family:'Microgramma D Extended';-inkscape-font-specification:'Microgramma D Extended';fill:#ff4438;stroke-width:0.264583;fill-opacity:1"
       d="m 26.09456,23.491423 v 10.6793 h 3.996271 v -4.425249 c 0,-1.648179 0.112889,-2.235202 0.496712,-2.754492 0.383822,-0.496711 1.12889,-0.767645 2.032002,-0.767645 1.648179,0 2.099735,0.428978 2.099735,2.009424 h 3.770493 v -0.722489 c 0,-3.206048 -1.083735,-4.289782 -4.31236,-4.289782 -2.235202,0 -3.364092,0.519289 -4.10916,1.873957 h -0.2032 v -1.603024 z m 13.524123,0 v 10.6793 h 3.996271 v -10.6793 z m 0,-4.380093 v 3.002847 h 3.996271 V 19.11133 Z m 13.072547,4.10916 c -3.635026,0 -5.192894,0.248355 -6.186317,0.970845 -1.061157,0.767645 -1.377246,1.783646 -1.377246,4.289782 0,3.093159 0.248356,4.086582 1.241779,4.899383 1.016001,0.835379 2.348091,1.061157 6.344362,1.061157 3.951115,0 5.283205,-0.225778 6.299206,-1.061157 0.970846,-0.812801 1.24178,-1.806224 1.24178,-4.741338 0,-2.686759 -0.293512,-3.657604 -1.377246,-4.447827 -0.993424,-0.72249 -2.528714,-0.970845 -6.186318,-0.970845 z m 0.02258,3.002847 c 1.12889,0 2.077158,0.112889 2.573869,0.316089 0.745068,0.293512 0.970846,0.812801 0.970846,2.25778 0,2.25778 -0.51929,2.641603 -3.544715,2.641603 -1.286935,0 -2.190047,-0.112889 -2.686758,-0.338667 -0.72249,-0.293511 -0.903112,-0.767645 -0.903112,-2.190047 0,-2.280357 0.541867,-2.686758 3.58987,-2.686758 z m 10.47608,-5.192894 v 2.46098 h -2.099735 v 2.867381 h 2.099735 v 3.115736 c 0,0.880535 0,1.422402 0.02258,1.603024 0.04516,1.219201 0.270934,1.806224 0.835379,2.370669 0.790223,0.767646 1.828801,0.993424 4.380093,0.993424 2.754492,0 3.973693,-0.338667 4.786494,-1.354668 0.6096,-0.790224 0.767645,-1.44498 0.812801,-3.476982 h -3.657604 c 0,1.106312 -0.02258,1.196624 -0.158045,1.444979 -0.180622,0.383823 -0.632178,0.541868 -1.444979,0.541868 -0.767645,0 -1.174046,-0.158045 -1.377246,-0.51929 -0.180622,-0.270933 -0.2032,-0.428978 -0.2032,-1.603024 v -3.115736 h 6.321784 v -2.867381 h -6.321784 v -2.46098 z m 11.130869,2.46098 4.425249,5.170317 -4.583294,5.508983 h 4.944538 l 2.619025,-3.612448 h 0.203201 l 2.551291,3.612448 h 5.125161 l -4.741338,-5.734761 4.289782,-4.944539 h -5.125161 l -2.144891,2.844803 h -0.180622 l -2.009425,-2.844803 z"
       id="text2"
       aria-label="riotx" /></g></svg>
